<mxfile host="65bd71144e">
    <diagram id="95QVNFwhc_BjjERDXGra" name="Page-1">
        <mxGraphModel dx="1326" dy="658" grid="1" gridSize="10" guides="1" tooltips="1" connect="1" arrows="1" fold="1" page="1" pageScale="1" pageWidth="850" pageHeight="1100" math="0" shadow="0">
            <root>
                <mxCell id="0"/>
                <mxCell id="1" parent="0"/>
                <mxCell id="2" value="&lt;font style=&quot;font-size: 36px;&quot;&gt;Adding Consecutive Numbers, in JS&lt;/font&gt;" style="text;html=1;align=center;verticalAlign=middle;resizable=0;points=[];autosize=1;strokeColor=none;fillColor=none;" parent="1" vertex="1">
                    <mxGeometry x="115" y="50" width="600" height="60" as="geometry"/>
                </mxCell>
                <mxCell id="3" value="&lt;font style=&quot;font-size: 16px;&quot;&gt;Please enter an integer you would like used in the addition and the number of times you would like it added:&lt;/font&gt;" style="text;html=1;align=center;verticalAlign=middle;resizable=0;points=[];autosize=1;strokeColor=none;fillColor=none;" parent="1" vertex="1">
                    <mxGeometry x="25" y="170" width="780" height="30" as="geometry"/>
                </mxCell>
                <mxCell id="4" value="&lt;font style=&quot;font-size: 24px;&quot;&gt;Enter integer here...&lt;/font&gt;" style="text;html=1;align=center;verticalAlign=middle;resizable=0;points=[];autosize=1;strokeColor=none;fillColor=none;" parent="1" vertex="1">
                    <mxGeometry x="60" y="260" width="240" height="40" as="geometry"/>
                </mxCell>
                <mxCell id="5" value="Click to&amp;nbsp;" style="rounded=1;whiteSpace=wrap;html=1;" parent="1" vertex="1">
                    <mxGeometry x="70" y="490" width="120" height="60" as="geometry"/>
                </mxCell>
                <mxCell id="6" value="&lt;font style=&quot;font-size: 24px;&quot;&gt;The answer is:&lt;/font&gt;" style="text;html=1;align=center;verticalAlign=middle;resizable=0;points=[];autosize=1;strokeColor=none;fillColor=none;" parent="1" vertex="1">
                    <mxGeometry x="60" y="590" width="180" height="40" as="geometry"/>
                </mxCell>
                <mxCell id="7" value="" style="shape=image;verticalLabelPosition=bottom;labelBackgroundColor=default;verticalAlign=top;aspect=fixed;imageAspect=0;image=data:image/png,UklGRu5JAABXRUJQVlA4IOJJAADQRAGdASpsAo4BPm0wlEWkIyIXSl1EQAbEsjduaHmdHsObKcJhq9ipAKV9f/wv8h2e8b+lPzP9y/cj/Ce/faX7h/ev8P/pf7R8zv9bwR7K81jzr9y/8/+I9of+2/ZL3cfqT/z/4j9//oO/Wf9jv9h2VPMn+6H7ue63/4PX//TvU6/oX/i67b0ePNx/9/70fEx+6P7ze2dqnfzz/Uf8H/C91f+s/wvmz1/fcH47sJ9qH8t/Ev8f/B+3z/I7+fmnqEfk39Q/0v5q/H2/RcF9+fQBm3fS+oFw0dATyh/+HzgfZXsN/sQePxIpAZXgNq2XwOmGj88D8L4wrBOAn8h8ALUo2Fv6pAl+JUqneb+z19DnRUSD0Msprmg3SX9XLIOXaaNhcXtJZC5Xc6lOxTCpUIkoYhNyAZTFIFtPwkaDBMl0SKBH7IxX07+Yg3XrXhQqUANVpfuQ1t31VYIgbC4vaS/oQPlUyeF5lQKLsv4O3BLYyge6z6X8b2e8MoOgtclDCPdMiBc5zdqQ5IRNZleL4KFHlJnH/B4iU7VaNLhD+tmN0/2CPRHDYbWjiqIIfamZhrnhxWkySo6LFBJ49PT/1abwvfgMSD1eokd5xz/xtRfL261Fb8w5RTjzFDj0yVPfIvuBc+7ApsIvFvJTgxrXAGmuUsmWJ4HjYeVQFxXYr4N0+TxbZSoi4y0aWURWo9fivZT7gQfUcWuiMihCwH9IQEY7Jvsx4QWCs8eu0MfWFCIdwd2x6rcYteLYvEVUr0/PAGlEsHC6s8AV/JFqGG6hVub+NNknezzOJnSOSMAYUwo7+VpeEhWoi4mJSKVnGSbrd93ckS/55MfyQvSF0R+JkAQpcJdexcPIgYxaoVXw7gh6PmsSQhWe0LK2fgwEBnMNZKePa5hT0eWZdbq1+uPSwpBrrGwMkM2d6vD4O1sV5EkZ59jQDqEeOBsjNEksl9LEJxi5EMnmN2fwzSMdwV1lefio4omFo0JMbESfi+5LKB9dY9AwhujTYU+zzRLfhbR7GjlZ1nlvQgZgLu8Tqlg3pvaEjefGBa1CGytmlXcpupD2zRG/jpE6VIGSxlG8Ic4QoTEtdy17fnvTIjd/HU9wkWIGCGZ3mB7uQ6E0NXRMuzpt326ekvP8w4lU5PC0Ykl3mCRRhfnZvg4fDKS+LHSPKQHM3BafQvtvf2nRloXQEVbWo7mHs8Cw9bWV5yq8atiCNzv55QZRXNxP3Demz5pYAVOzA8fXmDDaCu0/0i5zFS0sVs4oVk7eeA97KfcgQwHcgixM0XNjiN0N1JiTcfb1Z1uxFANJoRQubNi+VEWtnEUuSPE1FGq8GIGVQPWQlaSFNqstAkVGABKlLDBurK6QDk8uxuO7EHJ+x2HhdHeohAi/XS/Jo7us2SKB7V8OF+stAA164IXHDra8cYUWg2sYYDUfH/LMZkeKxEu9X//hTFhCWcEjq3qkJxAI9pSB3uTTY0xU7I/vXcU9YEW2IZHuabqyUVjzyt9Zd7sXzHLK6U7h6Umo4pYFsM2t6kx41av1pR42RV7CmQgqaQf9qQoll+QlO9Mls989nqE5rp4ADUAcI08nvOCvJbz6a/1BZLZCPPJ/Gkll6vSyZx+PLIhi005GZop85ULsP4myg/QyLZN1CWCR4Y08NlqTQnZF3mtgtgJRIRh/1NHC0z643QGujwARVA1v+cF11eReUyqdkh9qLZwIGBTLYUfKxSG0kiMMxlhdF2F0h6JqwOjOxbwBDsVQWkOSWfoAiM0b3hQNAWBozWQMC/+3XmY08tvf90P4X9RhTBe57QWplqDiPD3NMWcziJKKtQfBE22V9Cc3ZJDPO2jIyNWc7+Ev+olryckESxQ9VkenrfqQo1uKQivb7LJZ+TJ9f+IaQs/PIAKIByOHcJTaBLEtOOap/qt6xp/7dPOLGpuOM1J03IfPf3ToWlGnINdR6lot7yx/idcYxQo4diO5ZQDAtAWLdf0tvtoW9jqX1bd0tbzhvR7IB75Y/X3RhLNicJOloLfpvjStF71ww4cOtQy2a7GDvoqNkVcuNa42R8dAQlux96e0A7I98A3kfBS0x2x3hRQK4lNf6Tylv4Kelw951y0xRT1nNE57rwaHRxWwji1jemRmx62KDLg9X3892fbG/zELyzXPwNa8U/tEyI9wzVakxtJrdJ8C4vP0p0flt4nRBTNITX9Qspu0dN8YgIMxmDlY9CrNbmB88/qCTbHFNYIKjEcb+G8PyveaEbwj4Q3xgOJdcn0JQ67ncDz1rQEF3aZkQb8R4TxbMWjjrVJqTG/nJ25jLEBOGmIPm1t9CAD5XUP8v7JCdeYeSuw9vyavoIzogy0FUfEJMK4BcSLdDnb4Zrf6C99jsYUXanB0jRJYSO5Bv2pX3f8cr2fvxplIFzPYBEEHp8O4Kr3+J30rHWk5G1/4OzYHeE4gS0zAURPQOdJz4+RCa+pAodCkAWv0lVn/GEbnjOOJEfk+X/wZNe/Vz1a+QbOH0bMlxguROyP9b2MEho91aivsOEt/2+7TLRXOARdOpEegfdtf3KVqCTP3vTP2YybV/quwnVsRWPDyEfkyiwR5TIzXeQhfcGr4PsxZ1pcjGpGqD+3ncOMcflJH6ZDODhNZaoOmfhtjmvGsWaPyZh9zVp9Sgh8qhSGb9AQgtWmVYeKJ7UscIZbmXqMxLmOsawL8wM0F8Jr/F73r8ApusFrsbCR+vWO2fsPFd4X1Sf50Gnbog8EzamaeFJgz18dChRf57ZksmeDDJZ/9JDqDAPDdM+HgejMfNVIgKP/EBNf8SkouhHt79C0CUqKBGw3XtW0MLQ2Veedi3w8xG1RxujONNc7UZS/5ns4wTZCvnEdgzG9LJTwwFecsEyNK9dqMwq9eSQ91SJNW7/cK1DvnXFL1N4Z0dqCPC8uWQRU+NeSmXbYBKWVuIjeaZG6Z/sV3iO9R7znx6puKua8lpAn+R7rpQaSegsx1sqHMddiUFTPqsuMEFI9B24R8LkNn1E/F6ax2koRAGj6mM0g0VO5Pt3HdXkDQBMxwXntVPICx+ONYYdQO0kKBK1uPCh6w10zQ0hnKmWcOVVKQk3Ld/DQWDHVwo8Ebhx9B+9c7HnTfi6HanwktYU74mS7nd7Jl2EO6VuSdJfcv4eYG45Eg9dYTivMU+NKHMzLk7h/CEzApy/PTU1uctZQ/Q4Et6CPGxICK0kqLH1Yo07JoGZ14qjc2Ban8ofHREoHhuo236CsSKL7G2qGeFTxzhnSXNEESPihjiyAXiQamECEuqH/eim2mnggQfgXUyHOxd3uhT8hzu5RgQAIfV8qG2uUKpql3RO+QUj3nC/36cDaC8SHtL4URGBLJEv1f2dBpLHqfPBmopUmutQxrY2kZ0upzBVF3guASxhpomvXrKQW1zUFAwqt4TVru//NYfavqK13HKnBu5d6RjiWy+3/cC3c1zpR4UurKP5ZsfhxQsJa2M5cLK8QNKUBBQwAA/uPgAAAAMi7E84ikp+PF8QM+MHZYPGcxiY2iZ1kQo9gDBvnOJoYedh9spDbkZjgj1nrXgP0+sRi7/2gdrfdzUvxCxw0uhsln2gdHTuewqQ3QBmn0WXJ1XXMdQ3UC69kxTo913ZC7sXEffGTAGEzCJIt/XGbkN1/jwaIq3nOmU60DccM0plLvdg/2Bmr64317N/mMJz3HVGHRGHwTYgOxitXOYHoNgiTr0tbjhUAAHFWm1LFZbeQi9kpNNaoE8CwBXi2v/YZ340O1t6Y5SLA4IWnw3+Y1FOC4oJq2C0bXC4ew44A6Dq1BBVAEoafqa9miDl4xE6hInPW7B7MPgrIRb7liwSOqNLCp/Vv6ww73/P0YvQFRDCDbkdezxL6BXCmFotYpWbwjjv7UX/M3iMcYLVIuqSDx74Yt1mBAAAACbTRb/7A/RYRxQOZ/yWRGOWrhnt0LehbOL66gZUjiI6mh0V09EnQnl9+QNoSR4dkEJtR01QyWFsRzhcATAsqo3KuOcEApeUTfKRHYngJR29CTs6OUz0nub0c5wU8dPaNpEirrKW5140m77Nnfj9U91xyPvft/yh2xkgi66io/nkyHAguw6vwxZQWVBC1hQ9x2rjdEoACcS4gYoOw8kU8CYU/F+U8xUfHnSy+R5eAJzU0uIjqvnTYM5XagbvM2Zskfayqc1yLTxlvsu/jUQP8WKD2fXRZAzpr8dcJd5jbbVS7pAqWlrCeI3qeMftDILZo0QAECxxw1NdHckRqMXBsSJ+/dTP8Y9uPJEJyJdn9xQoLi5OleUs72S2m1pt01a76aAIsCSXmbxldLsSud7MvPnIbmMmUA7qY2OoJkimWAGh1ZwOMe96lqdqfDhjSX/uY1IXt/BIDhilzgPglnAV3FQNiB9bQ1hDgAAAAAItNc19zJhDmjRvgQXixzT7c+sciej3GAu96teVMBppGfJ61YGJ63AOmBlQ5LnztT6YDRWpwTezBCTvb5EY7DAvoSM/FYWmPTS0l+h3koajfEcexv4UCQDJstjG2xQt7W5mKtjkYNe/pozBrNDP2oZg0Gti2a2cGi+J9nns96WBzrGf3dnDgoGkywviPql1tjeQ85qVBpLZWpR6lEX97Z19lwfVdlI1F6x/Jytf5fMkLve2kutepvxTLArHoV9XGNO0irFXAuOyIndu95+0AhY+F30AC2Ogrv8Bq77EY5UXuQN1E+sDmj/B2pseGdVv9gpdwBE56ejnI8kv69QemJiF6BcXnB4rGEjqMKYzqON/NHlDA1cceImtxLyeQW9n+14mrbJlIvUTLgKDkNAulQ7AJTXEgU+A5xfJF+4TI/wnM16lu1E6PaHfj65tY23cfmI0hiNNuHiS57Qec1AAm6hoJeVgQs/10TpYICSdZK56eU4nYdoWrqGzkMHfVIPv1YLePBsTBDtS6w2KCg111rUK/eggjgAY1jxowJAygHsEkewwljNIIHa73PG04yVD/yNqYlG3de3+kvFsDYbcB5JEDT5xZR9jL3goq0zDGJiiedSwjr/Xu/1258Fjl8X9N9em1DzREYMbbbs8VZGFQf9DCznBT5bjSjDDenk3VC2jlV/K+QdEDWsSx2UVxzQmVgzGo7K13j4HVW6iJV41zDLgVvrYSVUlkCwNnGm+eaWl0k8pXC3TixhuT//KFEUjFmBAsdqjYVZooQxK+sIeIho4JQJDsvWEeCxShR2qWWCOejKJZ1ggBCr8b5d4+y0znWApsNOwmmojqiTSnFW1jM057YvbxEc1OqnAPN9FfFJgBfX8N1pIt3R0JIurbtcgVUEqeI1V6zoiOraFHxndvnj1iq/U9zyN0f5/J2xbxd7O773B/Erx/L1C106sUd3XdrZHsVW11JdEbl6SQYCzGPn4RNN28EVsa/Crn85VfeondwcFUQWxAE8XBoERdHPGOwTg07RqrAlv5dCxynMB6dEuGJAD/u/QCWrEihc91pOIfXXpT8HHnMhAlDf9uPX20uwFHCj74ZMdMsZKwVv3Q7Ur4VoJdJsq7IJRuI05NG2fdtLhcKkuHphcXoS2NkhoOYR00nG0SfYNEUBOB2iyIAoauQMJHrNVNlfEMla2DNLix+s5+xs1x6peSy8ZYZN9OnXjb1CKep3SQNZ3ZrpAulcmVG5iiJdI0eTMiLjVmsNXjZsUhvVIivWucjixR3ZzH4yaNjulWTia55zkW+uGvoTfAW8fsqiHkp/mUpMwxuEWACaxBvpLf9848ZTgFX/XntT5JdaDEkVhrjCjb72Bfx4oTcwNvwdzMta8PW1VsUhPRBRe+qSpIWACNmhdWzh/pPfB/WJhkMdEz9QcX8GOkYG9mE2edKf6gvRfId+OsiwS2l8wND5RuUc46xNi62aoWG2cPX2+mSJVSeeiyUf/J7fay0rofaiRRVxOSVlmyFoBow+HBjrXPoCZnf9qYTWRWXwkSlAcBYEAAzh9+r3fRJ0w+6ImKV5fWlLrI96ohA8qxbBzXW5PNZWn1QeyYigSWI/PNHYzOKctMVpJpKT73PF42PtmE3xyRXif+1J2dRwUSB8eKCK23ML0v46cZd3bfZAkUgUQLwkAdqrF5T525xNRPHaXHmMcIcP0eMHqILUoOtmGwpFeQ5b0Bh/w4C5IuuxgVYmrEvhr3yDi1+WNGtfSgM29TX+fCFVxpMs9mzIGcYV/rwuiw0Ybub9369wSSrEti8ryOMbBEUeQvWGX2+QtlDVlrOxTPTE62C9cNp9iEBkQYbr6q/64FA4GXMfjS2V+pW9uOA0wjvOQJ4XvWJFczGCV6O6A3V7KsYbh40bdMt8A3tFpJp2E3KUaj4rkn3ndF8c0ZRvoazQUDumM4rZ0jHhYNUiIkW51bZbAN5boMkl95Tw2zsqwT3EmusIOik/ujI5Jp7hCfE7T6rCXKH9aYJAY8tF+mcsuXnghVqP5RNMd8NZse1czeWec+K+Rh2RgMIJ3s00bYdJQIO2UUDlP+3TjxAmAnVf9TrJdvXNOWM0n1EB1jfDOvcnkY8CIx2NNveHGRKO4zHftyTrFRl0BdlDMoS5Dy/JhvZRzIImEPVR6MHGs+J3rV8bA4OxpDb8y4bSAP6I+cWXMz7X5ABXvPNsMKqccRyxyliGozmXv7kvasKI4E0V5NxXlnBZiOJFoP8SjWgdahUr6QxGqkvsu8oGYYswmhvpqzJ9utw/CILBY1yn5pJKPIjTh+GweLjpvZhiWL4KAMXYOvzFt4+HoVnBH1QeDBfecASmUd98k4gCAAvgABd63hhFch6kx+YsXmPR6JscwWs8/btcnFWZeodDQQI6nAZPi98UOVjHDyBdl4iK5qZQvJZxil2I/i5Hpp8m3qKO8jdHfrvEEtVLL6j1MlONxg1KEFztAewe06S7vWeIa4P2sgvjZfIM0AQcoOmiPtYEvzcfhLizm43FZ83zZJL+WBo6FaY/IyBvBSxo+3A8IQmN151N3gY/djNtcZFHIIeMeVwPmeHzdNrrYpbtPEyAjcYBh0cGYnqtlMVKaucb+115RH0+31X36T6VIuF5StRfjLW2xs1uvqMrdWjk8Iqmqb4n9rL/e6skq6VO3X+uu7DPEY99uTadFZOj8tDtk2xBziXYpnaqtfiqzkzvkc+zwU6tF5qegBr3NesaaRBf8X5Jug/mBsXF2c544x03y0S0jqADwMc1O1J0mMh1758+0K+ohEIZWEjuangnWM2mKfAkGQ6Fn7xId8/sriMPIoy+vB5iOXSQTbPwAdw9uO5lL7FbDzYrY5/fgfgQI4EGAUY0zU0SbsQYjQav9ZTk3wunoVuAwX/NT5wF8YVwGLm8f9ibhrnmYZYg1blbP3ryS/ncy9lGqDegMK9X/GnvQIGJ8UH5L8AikZYlQZEaYNk3PT39ljaz2oxtbvygeuERKPnp+0hL4kZHdZZ7AnYnvE/jmaUJD/NRGJhcE2rhINJl6O4tuKya3VsEU6sL1X4F/qb8EeoXLd3JPsk/eC0YQoPTMi6MPAugg0GPNUF0hQHjVcvamM4fDpwKsoXP927QLK6j02gd+uQaAhxuaJWByulCvDfd6UIKXWtaJfrokaSZtP3rS0iwmbrRjIiUXnFMGhIJ7bK2YeQ5D4cOa0Yx3FqUzFFML6Z6D2RBWRZlM1qthBhz6EpKm6fHcbNet13Oa3s0lWgm5D0+Yg2Y+hmT05VsrxTyWtVUR0e3IkviyrRQTHvWnf9Y/yQ00lHHeAOfF/krYLS40MrbdaId8IdWPMs3rmBKZqGhCschenNhAfQc+oFsrGwmjptVd4Cvn/NHNN8GE+napx4iVKCTT+MydzBjnSPzTJb2tdnrCCX0Hoa8RowUdzG9Akp7BqpSHMNfPTU3lFMwgaA7bk2KjLexAEyN3NAjz28w4EKC/isv4rtwnL1S1I8MGoLVYkCvxS6PUM/JHMdFqJc2QWkEyP/Kzsxz9p9DFKuHu8eCOy0u19zBZ5twDIeEKt182FegoZd2IAdr93c3hZG7t3U1Kb8VS8LtXFbk7lH+Fak1SMBb75CvRsYxBvRKITNXuFTDRlvFX45coPn0RATJIin47vg+JHRPzIEnf/6v2sByB7f7TUyFaTkzta9oqaNWAW145fPO3pbzUvM5E67D7r07XDwXn/HCG7Ty0JZhTnfXwf9qbbfX4msBiGjHGFlPXFNwNfWnv3btSyaXeiBUp+6DDFqSOLRI2mf9oWArDjALBNrY2kfZfpwTf0x+xbCbEJHH7WS5t2tm6L+Ez/gDPFB8B+NZmEGCd8L6IjmbWhgWkG8hyTxZaEAfWryNkq9XuovEOTPCrWsIulF2LPtuZ26Ed0+2ZmS5k8PpyRDfF1SrjnUPpKPey0rMEJ4Ye1Eh8xQOoaUsM87rgWG/yYc33vTxfXOU0r9AKxdo8U9mty7fqWpTgu/bX8zc2r+yIKDOOQn/1ohhxNuHreTzETyf5rszEHUvTbr47tsPgRd2oSD/1lVzSrA7wsNWE48gr/4LXhEdm/kFMwlDjgAqqaeOf43+albDV1cPVm7AuFVUibOfu2/xZtBlLARTk7IwcV9l65o3F5Oe1T5CSHSGFkb9x+HJSXPwKFAha7Ve87Aj4IL7zZvhTg9gjqU1//8M+zmGrpY5HrcVSdNLhP5r44r63my5nu3A4ehB2NKoGxrgZnVPmiyrXTbSJew1bFLJqeLnGsEC0RiKTW+CihQNIAu8HS1ZGj1Tk1FvskvAT2HyWRsnmoUQ8pYP6xhzan98JjhaUHaEpAfunuVgC3kUUBtDVNQDFtvMBJVrTRCfy4AmhdK4zA9M28qJis+F+RhpIAwofA1z9/cnPPy+KPLE0gYiXEXgXD5A+er8sc52IjJWQ0fJz4RTMtyWKCRgC3OxqorTmIJkjVHEzjMutlzxZZvSGuMd2Ven3RwstsuC8aCWXc60I6+bKubPq73RxR+0MBsXNvum1BGlND08QRJlXj7e5TcpNhE5Z222/TrNXcF7bDr642v2sLKqhK7K6ECaqDeIqpZ+2o37fAUczOfIzs0kfvCpRMb5Msy76FPSSyvb9UFNQycX8ZNlAcqukBx4s/h5xV0oLR/ly7lePU+ayQkuVsQR9Z9u+UqM5K5p2kfevLAd5WnaPu4k2sfOMrsPjPLxYN6xHcPVIxnNBHQmZB8tN9171kHJ/DWerR1SmFfuoq/QlCyo2OgdB4r2+7Mctqzh9f+A5L4WU09bkYd/zMAIdt/u+UsyBMbp6IF2sW3IF+8ORJmdjey3u2l5Ihwn+0JvebQdT038RGRYJFjvQMTcG911B9MYlSlpXsCFnt8ixBSQlcRDPwwmChYOpaqDZ5EAf9qjcH2Ywk5OgvqYCprYOK075YQ+5JgZhLVytGa7MrTeyCfzHxKdS5SRIo8ymwPPcTrk1v0WI7X3RS3dTT82JD3k4csDwcbt22SV3MmtzSxkmgQuIAhUTipv2fovM9HjX/7NJkI0Tok0LeSFPWyqcSFFZgK9CMo5LzYpNCRK1GnBGJh+0df8exRZqZujRlbnf/RqZ50YTXcrQYfao08gVlGdqH0v/fTBKY8PIJqdrj9Uj1e7nwOzmlZzWb1AvQJQLPUXGmNBrHpC5TbcL5fqlgtjABbIvfJcqnWa9fCFuWPhw/qewnG5mrnr2qUqdr5TTOEaF+DmIZKTMy5hmVHDEr9QLTYK9bpHex7bVV3A2yHOEqG7DsDvvK2v3P3Ik19yfKQIveN5q0L6S4HtlbeEYE2hAu/uXeH2xCDde4JAIrxxAsXr/1OkLOWFYarXO+r/ak6vbkMVSHC8XaTU8jDrXZUllpkfN41T+i1I09UUHXKed7iDF3VPDgbZhwr6LipQS+CZIzbhosHU+Kw9D9ITW5+kcIlRumm5JkYm4ONJoJ2wtbaz1yimKObB4vaZPEuPLdG3vfiphbJHlNLnuSW7JZuHLr2wsBQmV7y09fxGgNwMmr2gt3sSwRFSRilqZAoEpcCXh5dNoDgez+9U5uHO2Lq2kphaaRmHDNKOPapw0OjAypWN4iXx9sS2IUaG8YAAABuCRUzIcsrTXS2f632bwOz3KRWTw2qZDj0rpu1sVymqdKdIyagYKhgZm3Zdx36hL8skf16DghycCCBeTJvXYXS6AFIQRGmLR+Ds8lEJRCHqRwbNqDxihHY1BXM/98UVPfqJnj4R18t5NG5FaODCCKPpD0EO+/4GHPYHT3LhR1NtA+9kz8Q7tVoYAROsmkqE8oc/pxfhkST6B+5Zo65TQx1udXIR4o147D4fWw8ouAbwVqumkZNHOlAKhw/ENwGwchoTuXGP0wC1gValVQ3UD1/5EXS1vq2VHdJ/EgP0W9hWPmxABm/5+eq2OOugScLtmbdPAVgNVtnnWCJP6uWDjkJgZF221NonDPX6q8OjcAwJ/yVm6acjZ6JU4umrzaAkROhOOUqQpEWzZpGkXgfxPaLUaoX3wItpyHMltaJVWICUGgkEc3wz1qXszCA+3J+X1z6PJbPdojayO37I+lufWnRSIWF+zqt29mHiJICBMWQH/pbPeMGc5cCBEHqMU0omIIE7i9zNeQx1CjA12b+g/Hwjz/V2itSdKPSLcy0J1hpstRqswGnAWKFVcyvFvUC6c408d8p+RJ8JBu8j/2tUpKPR+E1+7vbMlI7DZRhohrK16ze/SxRkKCks7aoixjDKlIDR7d4gd6j3grX/uh4vKCEdc8+vKrv7cOx45Fzcs7iAmcHVkUmkLKRZ3SlvBtQvIVBcNWKTJJpTLEJeFVTbJSswgjG3IwEQpQkn50E4ARHk5QseWFn5KjZ1UBtCAoo3oJXW1zsUwzHXzECbUv2BGUg5tue88fGT85di+b2H1zj9OWCKCavTqczkXcrPLX6siZ08B3N5f0Gzk/a1feXyZh60U9ptBoUj2cjR/pV7+veKw6yJyjHqj806k1YkBe5PCheO2t9cPU+w5n8P0XlNvaV4hFtOw2LLuk0eCFztFS4LFMIfzCyNAmnQjfThKKvCvGrpIysifgv5e7JITanQAWbdZK8GmMBjziMSr6cHD4chRlHQw2mgibu6i7Mkq5Vy9tUhJqM4Ggg1DPPnIB3Un4EiEBGVdkdo/ZlQZ0inedeq/hihHMyKyUdAggpdzhwg1BpPHQqD+hUZoykaMQHOZc+Ws2zFrR2BeuyAf5RkizjaO1BKDAD8qwSiXgGPSmTXNY9oTYHQd98HO8FaS0vHMzaRKLuoA7Ts1jRkJ8hpb0qZkIFPeM1y8WmILWwpguefOCTm9yvD4nAQ4vSMcJQXyYQg5x5e0hpjEIzru9A57XeYHqXmXWcxnf36JkDgIoED/DC9c7rT3OH0wu1E8FmUH7AmKDP7GK0ClwO0SOOL68SpOHDBWtYjhchkSgvtLUnPpuFX7mFJRwcN4+a8y0rQgUuo+W56M1jZxulYMXPFmVzMiSFcosVSW3Z1l7y3FAZdFb0ypefzPTi9U1HeQjJQ02qzAIJJEYM67ThEIVtURVaqP5tiTtHiMVFe8ZVJvCgkxvAPCUaaEvdveuNkyEYCGWSXmkd6QjJdIeOmdDRQkb4fGLhKVjj1andfdvkhscyFr3bANM5eXlXomR4Jy/72MJ7p/nTlBjewPel3wNbrmlKRvKfMMtvqLziseTDFiIFpJSz5I0d7rZz25tJcK1yz4a+2nT74nUK/YKnEPrDaNzMVDoftknC5R6Yz/tDfNUt+UCsX75bELtFmHPMJCJ8+c+buMkJVY3zISPOhvbRNhdNo0RjMAgCSvOR7Cd+FGz59Mt4ZljGYnxORw+NrVQkTaxQru2D2OZY+a/FwcCzFInN+IYK8l7xBCEorK04hpwkunYrzpAqEHiVUPmlaq2CGzZFliTgQVIq6ltg1pIoK3zzckRedA9ohOx3weDy/L2+n9SGY8epnS9fS1ayKWWwFOA8J+q5a7+2s+8rAVMGnB0kPCXBFTvxPnTn6wrk6cXk8c92ER8cLjybbTiqCJgGnGjwww+7obfNLA8HoiPq6r0ESi6PmfwYh+GK5luPe1djoh43Sfad+GrOK7dNePSShJWYlmwQcSCEPJswZDyKt5XEks2FTbLCon4PXujix5H0maqoNuwqfZvUp3uP4dV6UGcpjCZuKhJ4J275128Dln8/7uxKga0L/rDKq4KGqigs2LkDII/H9zYQ0PZ463iT9eyUxyHd1zOqRB3ip1+3bb1WB9ZPJo308PSq9jQVla4wrTDLKyUqBzT1fuTXmIN118PlN3Sja3IGiZ8OnFwugtq9FijNZas2y6xXsBF/Z3QULDy/ZSpVf8Aikioqmh0S8+IIPAAXqI07DVbcUCowRemDx8uHm+wDm2IIq8kKh9+yzq0XvMM6xiEr+X4m6u/qC1O8+EEtqSfZsbWgTCMpxrFXAKM+dBxSgtC4OyoEC3jGc2ry+MsHVgCc5ODTr0w/WqBMzQsZp2YNoi3VD5M6XHmaRL9v53bbquk4NK1NjrxvBrN9EiM+ho9f/lZgNd1n70kEVXVVUB6SZRY3ht0QQvOo8e+/+M7l0zrvHsIZaow41o/nfYBhwAMunESXO6Qb3X4cplmleSezTc+w0C/J/7tBC3P3uJXWumJp6/Ly9WwNo6Yt1WBa7QtIBXD4Qd/k86NZkFAH/aJHAhaXqMpG3lxUXyiAI4vaUdMqbrMrwA8Jt7nTeNyT6j4vkw3K1wD3uMszk2e+uT/GJK6Mp//0zMC/GzuRHRPEK5ZDAJVNNuK9ODPswWz9fbd0hIvdMx3yJaufw0oKn82kRTsYcJON/uBHQ5JMXnrm342oNvEPdPW4JmqUn654PK6Vst+DwhUDslE7g2Yieu6WAzY2X+jOqkraWIN1AAYa3KQLJbQMexWwOGl5wrf54p8krDZtffRqfn3dJ0gPaTcw+3TVVfA1daYIyPQa4uQvvzgtcstc0cqb2uc+ygK5CWnJiJoZz3uhFdEW+KU/XFLVoz7UfAMKYOZfTYwXMMPSSV7rUpl+6BMIV9XkT/JYIe/ehnIam0ZYS1uAawNNo0geuU85HNwenMCg/mYKhsBor2mR6RlOkRg36wD68JeOVVjfN9wB8wxKDAoAVZ36ZkDHEiToYDsPTH3RQnOr76dZDmThr1dKHCgIP2jb/U0YE/YctDDerjdwtQXXGO/NzJFtdh+F3UXb2dbU8Ogl+E6qjLrxmbgxzg8uzjhmhgy6qJkD1FSAfZi5NQmzO2OLXU/SibFQkmgOR8V+Zh4QUqjihJgLkqfrDhY3+QgYvUyr7wxJvEPVTW2sLiTgpG8GwR61/yPtx/iWaHIwKeNr7ePhwt/s7fEHgimXfp6sK0LwR4keuriMIqchxe4t9DJKQ5ikmWLHvEtCOHJ06qePIef7kpwdGEMYuYkckEGOTLWorWrNxFphKL2gtpoqlwcKC2ahwWUfLS5g8f+WXy3Mow9DqIB8uTTSTpQ5ZeIZQncY4Dig6qkd0jggXezBxIZnfx1T9yuyPQxW9DHPz20N4OpA/TQDWal4ixmBaCQ+R9zRvLtbWZ5m7uhCvUocWp2xqrq+niTyGlndW/8y3BtDHzYnmMh/K5eXHKNAJT+dQyZMQAHrZtdw3kK9h3Q1tlV0X3IGeJP79xXlX60tCU8Z7B9TSZq9x0R3/BnrCFO8PurH+VGZWSasXuTZotbhbugWxBBT5EzAH6Z4fPjAGxuU/5yqUtedL5qRxC2J5P+RX6+w93QPb6Jk01rXSpwOU/rHFq5hwHIhHlwtRPCxgymd3OKk4S8i39cU+ADNJkPEYm1glmbwQdoNXKcnWXQIMGOptIip1Ju953slpWMXoxaBudzPdc6dcS3LW3G7K9NCRvfcfK0qRrUSiryvOpR7jDeD3cLdZQQx/O+BcekoS+NkDZXZ+P2jJElaGm0Wrk8MFd4ZmREyg5XrOyi8sp9KBHcqSgYm3DeCSr3By3cDp5cXddQHQBRu/6uvc83RcpwAQ8bQkD9w22hO+PE44ZUN/karTKlOV9dEJ8L2rbnBHFQORCXkDWI5EK1/ZSvuETeiBoqu7Ty97zC97uW8XSBUMYb/0CWX/vth9uwmAGyrFGUtu1riFl6lg6NxeyhtLF3J/heKZxpCVNjTxoedhN9ZU8H0BAMlgvftG5jaARGJGqhFePoPfTeBSbo2/7Xj9+cHgwWg+8iq9bVVY5BzpEK0ecsf8NFHmokxZoeeINYJ99Wihr0NJUXVUK6NxouzRLu92X5F0EbNAIotvwMQbufkSuGaAieCZB+PxhnMvrfDK18So7ITtCGD5GLEbjYzGA2tKQlnpuKXhWj8G+v292pXCbmGrGlzTAHcCBQcNnBZfWy6JuiJj9tHM86pOlaFh/OckXWDmoO1aHesJtS0hec6BU21Vfgkn3ygHHWVK5qdfdzN8+XNnxPM11r4hXMsclW1Sbi7rZNn0hoP2EBtTpqPqdxDxANCPFcpazcyt9k8J/y29oBwOyI4cRdYRMC/+rbOlGd9DNlnztJvg9rJVtKY6mxp7ycYVm0I9iTr4UtSBLpo8ziTbgrbkYU/NfbhW9aUIj5qCGpy+YYjtyC2gckVG6BxQ7m3Abw7ZYPrO42vFeRgG3u7oEV/BlWdkdYDP4j0OZizDEA9SJptEMDJ1/wAFB8P2sK++cKOhPViu9vT+QfOoOb2kifs3xx3iyLpP06Fa3mpiQxgHcYaRQdvzaQyaUfIJYESOXlJwRKU1e2CbKenmdUS5zwIb7c8jd5pnenY579LhKvFxp4MLaBkvRf2DWpra+LKoGLeK+evqI7cz0pIFPnPvzBbgFS8kQDNgJJwqIdTSN8Dx8CTyUjOOdR91mhAGD8sQ1xDLX8qNNOCDY2HIJ0IZZx/+7KLvyVOLW+xGqwT4RXZg/Ct3AlVizvE221pITZ1WN9mz5qDt6t6wlIGtyCqcrDkQ7bkapzHqoVuXEAigFojxrg1CBv9X1kiTPu14IIcQQPnli2EuvEnrOaiq1sWuwJkdkgYmRzHjCKZ01YPmrNfqz4NgXyZAgCkVic9cVkUaRssw9KQtSyRaceXrwKplxGiPFPG8ct9o71aOpa28wEkqQpaGQW8ZTtbg6e6YIA4FlLmrPf0/nnkWK2asYHinBEgFpKRB2NYgftLfMujpCzF7m/j2cEC16cnuX2eUCxshooBTJAGdgQxiPsA3eKm6EPE1ZWTtwbEcyWHrXhaYu3i6snAW/HyYQ/SkIhqNJa1QJ2kRTSastHymGStin2axfW5ji4AuGSnJK0JCOZ89yjATZZ5nyRaRygt73gRojGR0yy0GZhPrSGOIVtRLw3Vy+H4kqOf/K6S6oN5ciATAVe7PY3xLDw9rMx9Erw5a0z4J6Mnr3ZpOYgGFFUbq6puKQ7ea0sIbgsJMf3WkIv5kk3a6pyM7U+/eoR+t2lt9oTAInlH7y720QwtkiccRcPdeEoZycokFFBUX06SJ7NhNBCIxuIboaeyEa9sgJmceXccG67Zz9R/c42cPdBtpw9Y3mKaRMITANJCet7LsT+oLFrngdquwnn3mDMWzC400DlWRmusnwXBl4p9omQA7uq+WzyF2qHwEGTP49Dw3lp0VYnygHDS9A0X8DvI+dG1mwvpmIeVdF+CwcuCCMVF0p/LNgzunohV4IPXRT/DuEA6WiIcepkIqdZ0GNnwAgI8KToeg3ON+8XQkIuNtP727ONqVU9AT+DxiRp8E5i8q/hEgV4tnka/HiwkXPuZ6Y5lIFvB+n2+19nLatAuCqp+NEtKxVws9vUZw4zAJAolvnkYFNxyDRorB3PF6WbBrZwpsEAY1/JmjDECJ70Z89Vup/HNA+sotVexqVJM5x3Ypcn60ggMvcndkmZ9sKJH+aAr1IRtDj6YK9nefTcUSMutufbNQ+rx9nqjEDJJJD0uN2WsfuX2TS2l8pznCLN5MfyKEwqBhE2mbQuZcJD5VvNyXLVryrM2h5mmH6tEzyTKNIL5LqAIHoSMEhIeQdF9Es4/iwGqfz5kH8JhoFXuVHGIeodDH5GJfdEVI6ZAkzXWXLNDZXDdM2fZqIRMzcmVCa7S0pMtMQLqwAaE7ChLYqD6bcyB3XWxld7aHtDtyzA3GgkScwf5RlqZUuxcFgvYXovpMU7PdYXgaiOTU2E0efHoHDIkZbHiRMVW1ovVYGg0CkHRQTHjiIER9BFkDJon2IQiSTSWRRBg46WNgxq/mBPE3DXjxOO9XK6oMTXA1IokSUomqOZccLIcqy1dc0WojXnAxZIyiyUof3lF/zy1lmWZ34FKW4rlyMfQkvAe9Eogz7P/2O6aSVimJmNKN1Mu47C8as+/cE/xObq6S//QZkRU3XReoZ8kQJtx9Jd1xkwz82Fb5Y/awG639MoIoDTYUqxBxM31+IVze/PCf52sohRxzOCyp43kVzksChxfGxrrslMy8JsercYp+EQ03v7xMu2q/MHY56XMpk6MYkD3r9RvI5b1T1iBZ53mUT71OVqpvd37PI2YY5xuDaJGxrBi2D/Kd8Er7/KOv2kiXtEIJGUcGs9LvvhgwvNw3BpX8zDxCmMnTC2PueBAWIQZq5fdj9tVL21v0NBEOyby39duyctIqw/j0jw/3VrEPatY2R9zbWV+1GZdlMaFWlSmnn2vCcpPsws1BEheTNFBPJRXMN1bScTLdre7E2h0/KwS4lpCsTyEdL4NQ6yZYY6IJtFubZpJsUieNf2InkswwxUoQl7IHfU5wYRToO8MK1f0Rw86x5rMn41z5cRjr9u0XdbBbHSqbTO4ArArDOmKKs8wxj4Ghm3fGZsTosnUOMCAXhinazi8eRdXepyam4BiT7JMEWKDgw4RLcE480Ubfp2FOToQZ3IROXye1thc/JLqO0+7EsFjyHmuTc+8vbSoP/Yb5DiMZO32LjVWgqbzEHc5rgwQ7BTzdYoIlUL9UKqYSS9unLGx3087v6vHtuhmW9lb0hoeIrJtsrJwf4Dj2Z31Vb8PubgfynDBTwyA6WgVMLmumWiP8gQDPXDSqAQQ3ZxQYn1MYVvuHuGAJjo0CEJnxZ/Z33CWwdCK8NztO0K4DE72f9rxvk/oudVsk0PbHCTknMzr+9e2li8oHrfMWgTagyRJIAPy14MW+kFKNxbWXBcwKa5M831d1VDk1MheV7uqGb3wFcjbrN5wvGVtG33TWtN4yP4nBdaUHkO3FMfC71t+JQKZDjROV+n5DbugfUJ1twCrEFNlsGSAZqTZo9dtBwJ4cvBhue0kj9Ym6VJZcTEZYrGYmH+SRZbQQG6ibrS8aClC0scAfMg1Mwbd27t3gnNoG27GB7svdPBr8jhGXNWXxmJr/DeSl5BXaEMgBuvn4GSb01jEhqtSQuhzpfG33kDs6+BQYNvKSa2Fk3a7QgFIV0kVLb41zfQqc5jImDQENM/8yifseQ7FZcctbAXmP4dLe4lF1rS2QnbxJNBiGkH0/371t7Ev+UJ4nbVDyBVZ+B3R9/+vfPzm5BZU13c9XK+Urm8Rc6jJkOnpzmOdANCAgGUZSuMCL+j0UzrBR6jhFmAOJyi4MwsI/BTeA2IZCrVKo6QA02egGevju+HjK6qirnSFcgV6yHsVV4oig8cRu14N6bJngScNH3SvBPuW51pMPC+FFQffZ6JRoFrBd1WAehPl+kuSKs+E0MDY6I50DEceGwx/LXLwqrqTtQnQt+sXqQy53YjAKkbRjbfLsPOdYJupGk6Ffk6cLMop7YuY4CKk8MujCEZ6BL0NPXWT5studD2YemwOUKTyxkecqlcU4/fLjpQepqufgi8xPiHcPar0H319+zSwOzpYSgTin1thqpeCUjq1nA26MTSpQTx+QHsY0Qir9WLQLDW4KFAL9j8U4iBSlYwEEbfdECGj/I2TETLG0/axFxeWQGZuKWr8MGma0qMapKEv3j4rcBwP5i9iAteoEIXmIeZ/epHTm7OskKNwtbNQSP2xXFMOfXFSl55lp7Mzav86UZ5m3NrGiuaUkIcP6QX8B9kxva6jnQmVrC3sUL+495dqRcqrckAcIdEBD4Dteyy1526Fdai1qG89X1m3kMKki2vEJGN6bQn+d79iNqaC3zApEKCATYR538yjs+MK8rvn5hNthPgX6Jo/EyUwWJFM+wFhco9vW7dnv19bDtDH496Z0WD8huQ7EnE8BwiBygJsq2EsFImWI4onF1TxzDg+V8KbFA6+lI7HRXcMZ7rY7hU0uMa57E5gOktpx24dcVW1O0Ch6WT9EI+2JLo7O792zeRSgYpFCIx43uN9Muhgy9tfFbmh88yBLAxpihdWHlLcyhWP99E743sP9fITi1DMle2QacG8nr5amQKUgaH36i0EDXLeF8oLTkabF2iF+Z45Y3CTOBgyMPi3t4V/RoHFmzNuFTXfLymFjikmMunZFeQA5wAfVRJ6KIQBAfxwv3Nee+/aM90g7/UTcUtjULyVn6WIFyGB77j6QcJZ8nSgTAmz8gjtooId6JYikUO7iKGwRPxHUuT6CxKmr/z4OXJnNAZ6/zYJLYnJRjgna8vmVRjmNNejNdMH4O4+oenzilnqoAGkPaIPGKPXSROG5YmoiNhyG2TMSwuKYxZy6YLiRnFLb2PbnM0lwaqKoIAXuBrbvySgxaKxif5L+ZSCzqXN6MrN3d4BgH4QohZ7Eq3RN27pIMIU8oVp+vQ9ka9uL3ZLM+9J/UkgQkdUzolCmM9fPPwDdktJCEaEpXN1aGeiGZrYVazT7/hNox3lZ30LLflZIbXZonzFyEvEJGhbOmtNhMeqh8RT+p2XkYhWGD1HnOoXiQQ5iRU2hgE5/NaEniu8x6HdpboI3wEwyKcYNIt0bNFb6Aimbdv4Zm/MZlyUhj4wsmxytZvh7zlIDy8gxjqHvrtn64uMZKPwFLRcukDmVCXHXjDu7K1GZ5NfjIgX+BOhxFXbwkuTypgm/ZELHsfDicTeShhM8gxy3ua7a52Uyj3pWDbgOsUo02IYDL46snLom1hC2QisCnQ6TQW5U4BlKebrxsi7Cy9CV3ukyoJT2ZLdqYWu1iYTDbrfTA9j96Iyq6yjDHvWpFd4blY2N7uNsVa4rfKORuJnTIAdhQQDs1jOYlPAgmDAwkLpjjBwYjHHnW6Hb66hvGV0kL1yESIAhuQTWz9DoK9KKaTxEUbEvCUxoV3rjaerP4OvrbOiyKl6udrH3yoA0eN5MklkyrtaVsUt/eu1dfH2SpGbK6IGAdgqsbAW4OZdHY9lPlRbbSx4Iw6dJxNSKBx366LhIH/w5FIiw1bJ7WKK/SCU0mPEc/cGpEJXx+LN6fuRojO3j2xunjBT2OY7IPzMSS0zz3r7ZVbxIJo1jhHg7ifN2VNbSTsb0IM96gXuyhC1ujhvByBLuNuN6X8uBg5Uw0cb/+cXatWS8UnaJBBZhPhwpBK3/Q9OJPVCUnyEjAK8DPkiNxllf7VZuEBvfrnB3a+IYNmdiYK6oMBr0CX/jtvednkvOkuZYdHDLeeSHyBzRRjeVTb/kkCQrHq5A+lAkSm0W8RM4PVfkfo9vTmXDIEaHwGSpGRSYyM4o/KL9atOSWKCodO/Th2q7m83RIq8hvkjUadMMPom4AXopudW0MeGaHH0v25gT6BOiwgxNfxK6ZM1KJW/PtBeGxpQtOhx7AM8BkPKG5rCYCRIRGS70flCib7pount/C2TzCP+xpXN74YVgWRJOhlUcPVZaSeK/SxQZFKCOG1/6GzmGFjollbGJ6Z0JwsA3S3aXhjQe7s3mdwb7iRNAKXwbDPftmlcpnIVyju4gVv6EZ7+xXwhZJURNRgFweAUOdThY5FN6X1mr1Gk4obwwUFIVMWlbki3QKGLkLOVlDnYJI1XNSu7bDkWcH3CjexdZt1uhftibH1BNFGVsbB5UUmPHizLXvNZ+aJoLtAX+IwDYW0A0ZpVdkgao2qi+PXXHe8g/slDsBz+rvhH0acey1LdOC8/UQ5tNz3pGurKwwT9/z/Ksd6Pp9LtiSc/KJsSGrNF/QG2ECLWDgS62/PCCbQnjil4HJ5Tqa32/O1KQPJyFXCy6lWFSTMP6Itzj9JbrlL3JONTMLL2VRBwIRsn/GgFq7DVj5Jzx4nAQQKiO84w9uTt8Ptjiri8vl+tdhPb6iVJTvvbtxHQiBa+VPOR6zdEaM9y+qCQJnp49M6l4/YcdVihlO9aYyQc73yzkSBeuytoFIRqRmsda5CZvffJ+CLG+wiAmTTuCC9fVVBV162EID6ZN7+2uCzvW+GpevbzunbgBTmyO2jb93y3bMtsvhN3dLn7p0x95jV8Wf24xBEMmedSzYi770KD2UehCThyHGR0yXmKwCnR1zI3DuIHSp8CKiheA/uw0zENDliXKGQafvueS1469h0J4HGEl+mQxmoW6fmjkcvlOSJGkHXizxzYUtC/T0QSTtC1wF5mNJ8UUtOT6n7MzTtX2rysyzbVSTxklX3HJ7gZ/XMRkfrgB7WVNSRp/+z/b5AXeVBCSBm/9362WZgjUh/lNCTdtrQAmUqlaNmn9rDv45kJwGeexy+kzJdqHfDiqDKdwhpPo/Wj91v3oujGq3t04/pfYgPyj+jOQKjsVVkFskKujFasfQzAFaWk31MQGF+eMvZyKnKeGKa3v2Z/wtn0NoMknh4c/aLdWEpwiJIFvDuC3mrwRE++DzvfrUij7QaYJWwvQ36cudLSFgi0nAOxlJHCuMfgQVOuaf6rFC1Efn2Rkbqz5PrwlMgWZeZZn9AQ6B/tjMN9wUlxCNiUoLwLNiDi6yyH5RelnTADtmlWePCkwb3dfTm0ROQ0PpjqHHOwQi7ekmTGS4VmA75rxH3RcXrFC1a2siooP6RcOGGP4nqU+L3XnBnSM+WPoms2bjS8wN3eA7JLiqjAcz7EfD/5u5N0H8KlRULBOrwhGMquDaYoInyYf0EnpwKxHMbLCcX2D6/82sMK1GBiELxypvcDBWDVTDYDYc41aw/BNvNwkNrF9zcNIQEEpi+Kd+7LdxxOgm2Xclwqawmxk62rhHTo0Mc4f9CAp2XYjGOb72P8ojMMuEFdwO6AdQFAJdd/A/6Nabjj5nT37hZviu1gQ4fDhcgSWfKHbuy1BobjhYJ+voD0Fr22Eol0kR3eHrSdZVd6hLvAyMOyqJO0L48hCSSqakgf+CUEf00b3CGiKU/07GpQ6BOj8FuRsTHWLoPQUsa6xq2Ilqw36turxGJDnFt5y1hYCUGVElSkwN3v4b2I8COtNfkWXLA6CupfNEVkg4aF3GoxiYDakmTm4x5Go+hE2WhqFZhDlJMPn+PoNFYTM1qoKtmZqLnJxphl9L2JXKJRBl/s+lgv2vd091QTwtTQjiLcTL3nR7qTlw4EjCtpgTQmCeizCjtIZ8V4KGcJsqBLxJcf2eEu5g8Rpmk9W6DGKF+lDjAQaTypSAZlTCerXekYLAWI+hZlNCs6WlJTTj2YNeGbe0by2/35KWYRVGCqNBjxRC8HaBiUh1pX67J0tpgq167n7HCBk7P/MUftb7yA3ZRpcNx1yaI+EcLqlbXWxwVTyh1vJgmkkMWdWjSu9XVWbTBxDJXlsg+EADN7UVJI4sBI0wfE5L0i3REy+f2YfnLpEpakFCUzCv1VySZd5TnqcL/IQcKAOj/BiL4QFAvhrczdC7F4MoW6pUEoiqoxj3d0sBwI7aaHyePuAnBP3mfIWzAio3n1h42HWJDMcgE6kT7GxrTr0a2UcYiXKscfuSs4l9P5ew0EpuOKfcKVf8fEauWQztq0qjx4VlIg+ShMvmSaBA6zMAu1uuxgnEruMDwyG+29Bwi+MDoK2BGCc69WxnmXPUZWrZwTvlaa9b2iV48/yxNVuAxeSF7+ZP5OJLHHHMbmyzfoxotEdIAoSlD/+jeB1RylcvPIDN7i4RnYF4IetMGcbwUroZERVSdk8pgexsyrWYdBOonr5uTQIR/zAFyYZZhdVd2FM33v+KKAANCXvF6sowTWzAWCdZBmIFncyMTmkwM5f6eQCy3B9ZgKdr7LAPVMElf81D8z9t0pfHBt5HDakrALBgtsoZ+Xz2Zm4fzygEYzhMeOnuV3DHBKRhnZmcPDt4GWnhqUQM9xDlaCkIhvbowfxtntOVpsavPUMZaPn+nFN3k07n/Cs2QGM1eUvZv+YVXkyCjFjaHpeTKC3O7hrso4JRlBrUcz5Sn2+KQmJfsbKp7anpwYsKV1H/+k9n894+nN+QDATzYr/nM2fbsu6+FaYmyJ4B2WNkhRVHMQJKadGFLkD22KuFxis1sZ0zf+VCDsIVtT2AuIUMPqVqUpuZV5kB/1c/mVw/JZ0gmyXPjeYO+3HM1jVb+AMjLPd1333wfP2qW9MwgY16RaVNgG4f0zTp7kWKWBMO8nVkwwKSA4dSgPyarl7DIePHVihHorOvYtkAhhlvIqKMfYXo93Jk2sN0OjBa3o1q3UfhXS6xs4BdIGd9P06InJRZwTstOt4tYNTxqSu+zOZpZddxOKeAL+LoUqmBy3tddPn0XhWnuUsW6wnrP4I4uFsoDrm+IihQ6gkWgOi67LZPnytRBBoUdZBWqelF/LkxF+nmYQqSxeLGMLemQlNKoJeXzZAsCHSaZjcnLt/vJfOFsZfLB9hOn/U5SnZSH57ZPXVHqNWeGymrRkcrb1HZy6OH0z/BWfT8H+aWKM0CoDj+rxYIpL8wT/kbmgCgp9i8SINxHgeacVW4dSbHpmOnSGaQ6bFlibT3639tnGdEEMTfu6Ddl/P/cmjNeSLg1vm2dWfGCe1ACFn5xHhVXjOUmqN4EBHEMijbT7+Qy3heMvH4ucco7xe7eh5r3O3HyQZeaPGVKTXf8TsTvYMGONm15M+nGXXwBDVusCUPkwGiT9QmZ+Vvu3Ap2PER2z4agbUo3ps8W9bje33Z9UDQuGhEZ2RNF7BhvLegVy0VGgrAptnv81OtlKXzGQLAm/MV+veHGF+VT1UoQC5FsLUQkXYlXpOpLBUzRVv+0Y7YR4iAO72EsHmDez7aNZsTZSaCtLvI5blk10/hCSvYwGkjme02qr12iQcOTTm4TlofWNJW2uLSCnibz5/BklQoQD4EskyfVyJojypC/t76vq1l949DT0jOxRKEsq2iB3BXLMAm6LX19u+9rpyrsAA1fkvkCu87QeCECsjr66+UjINrKO+q7EfYBlwNFkjsGUb3Z3S0K0HCXkRkcA5E93DfHNnJ1Pk992YAalkendw/suJOI20GmyCL+JSioGSRE7fboy5TsnbuCx9ZZozKU5oIQKfoPL5Q4JDgkztvRxFmfp15a7INLNCwMBG/SQkCWoIq1H7n5gozespUb2S1Q1zeC64wBWi7ldmghmhvLqRXW/D9aNNwi+5OpUeCct6glLWYhikTPUlfPU1jb1HSRp2BRMz/bhs8UUlD2UmtrkRvBLIykEbJGZxqsb0RuuNbRbU///sc5WEazVAxVwZAkKGIrZ72NlB8JOynIDBeZrWMgWP5x/stU+o6+kBji5AGX5lxIhTO+cIJEaQ9xBDeCMwJS0P60PLy7IbwrD9rBLpOenHigIJFUzTOOx5dr5BDFS/R9QR76q7bdktDExZDlOiVMBSzgZTgxbpCfNoNq2ft3hMminiSJM9aJbyHaK/qqZB6Y2DGXXeLwRqceyATsz+MYD23MMBvnCw67Z2OPgkG2JSdwtkb1eS4X6pi/pOt5fSHDeoJza3u9ikztWqLhc+w0s+WHQZO7d//HQW6Y1a3nKIJxaPmPI+ewL+zkLSrkXA6HVd4jq9FZ8ivije0ewONhui0N47yoQaB7fHtvhRTsmaNponbFE+06FLAmuUF+EJ+7LQtdVcdFl/aPodTGwrh7o3Unf3KtRpDTNsPoC+98rIBouvowCrgx0nBU4eoyzyyo31phQJTavvi5sRZ5t/dXgn4C7CIxwDVLi0uRUjHTJIejYIYJARdYzWo+KnZFrMqPlE5JecotGfpCb7T0HgN35CB/UwZmFd05maXk8o6NqK1IzVIj5n/4sdPxLEGWffDdsxyu458YyaJiqf3+fSOhkortZvDfrkTt1zhpaVyElNJ+OQo8D6bIysuupjylV1KEvsZnIiKvrRl0GhgQmHyKYhQHQ6uLMp5yXIreNPfi8ZtbU3oztiyOP7KJCYCcUet1m0Wvg/re171eKD9RfkMyQatcDjGvzYhVeX4BDD6SrrrBqzt2jNjYNIoUwkaFgT5mitNDTwHS2Wjk1LEIV0bkHmvrhv0kZcWkFpX0YEXolqNReL/p00Yd15FgbZACUfO8av0COc6i859FiK5y433Nqg5/WyDBGQOIhOfIqA+sC5HDAGpmg5TcDzi4ensmE4JIgxXwpawdm6sp3IU98NyN3tiAKoctxC8KdvBvBaJMBiAmoOGQbwyJ8CvtiFEfJ/4avbASybKaILMh4Izc1Nn/Ok4G6O0BtkROzMsAQCj1dTOM6J6v7RWOtP536vVm1nYtifdGtb0r1gbpsqroD2IVNXHzxS/gXDls8QZypcmHQt36roaOYd/XQv/rYeejtmg4hzgVkG5g2z6zhT5orju9g8PjG/4W3ShbxiAeX4ZQOGetbxuKWbxpqBZVWpXkIMiIFFgz8q1d8RytabXPR9Bpyyp61czOrJUrpndhyIYKP/bqds65r2grsYFDl/kdLH85g7dP+b9bceL1dJVPcwUUQBB6Pl4SLKW+4OPYHf4SIamH1un9KTNixUYsLPPGaGWWUdjDFGtjA2Saes1XwGCajFfyqVlQ/dk63hMX+OrxKEEQW4spD561CR8nyGFP7nhA6YqrDCEN5NrEUl2dq1TEWsAADLQTyc+NQHBazyTDPeNUgxJiT200XD2NN4uYKPPsIN3ivG2ktTgMUgK9xAiP4trZFuy4Pvkm8a1GIJIkjewGpP0HlaGYiFVTda/5Bt/gXT1JzNnnsd0x3eTCOqQXH3jMW7AhfykjjA8mMgxBiR82anNeRvFpmFHWwvVT1hLrUFTJ6fN95fraQwgMGPsXSJtxoVV9YP+yACBMedeE7dYtqlu5xkbhyaTihwQ/BK9iPrdsJV2hl7BlBq5nMmgPqOzWx1wy034R49YEe2vF5YkrAJO1oedWspN2faCnAjCYzBk7Ofl5UGKRooT7m9BlXswlO+Jerf8E+/CHhxOnNsYeszYsCk6BgWvUQlMSRMw2amRWfCQAAlSAAAhI9dQmd3akSRPviX7QDtmIX3DXGYBmDZdh3O/5jxrslYhWRsEIJfl4ewZiptg0Bdq6QTYRi5CdgZpGjKFbW3tLPmlhU0p2pMbtagIfQtPW7DV/e58WgwaXiF6CN8saGS5QQSpDs5d505SoxSB8e55OYxkfC4FjoAAAAAA==;" parent="1" vertex="1">
                    <mxGeometry x="452" y="290" width="345" height="221.47" as="geometry"/>
                </mxCell>
                <mxCell id="8" value="&lt;font style=&quot;font-size: 24px;&quot;&gt;Enter the number of times here...&lt;/font&gt;" style="text;html=1;align=center;verticalAlign=middle;resizable=0;points=[];autosize=1;strokeColor=none;fillColor=none;" vertex="1" parent="1">
                    <mxGeometry x="60" y="390" width="370" height="40" as="geometry"/>
                </mxCell>
            </root>
        </mxGraphModel>
    </diagram>
</mxfile>